<svg width="51" height="51" viewBox="0 0 51 51" fill="none" xmlns="http://www.w3.org/2000/svg">
<circle cx="25.3975" cy="25.0374" r="25" fill="url(#paint0_linear_1061_11892)"/>
<g filter="url(#filter0_f_1061_11892)">
<path fill-rule="evenodd" clip-rule="evenodd" d="M11.3975 17.0374C10.8452 17.0374 10.3975 17.4851 10.3975 18.0374V34.0374H9.39746C8.84518 34.0374 8.39746 34.4851 8.39746 35.0374V36.0374C8.39746 36.5896 8.84518 37.0374 9.39746 37.0374H11.3975H39.3975H41.3975C41.9497 37.0374 42.3975 36.5896 42.3975 36.0374V35.0374C42.3975 34.4851 41.9497 34.0374 41.3975 34.0374H40.3975V18.0374C40.3975 17.4851 39.9497 17.0374 39.3975 17.0374H11.3975Z" fill="#30B8B1"/>
</g>
<path fill-rule="evenodd" clip-rule="evenodd" d="M10.3975 16.0374C10.3975 15.4851 10.8452 15.0374 11.3975 15.0374H39.3975C39.9497 15.0374 40.3975 15.4851 40.3975 16.0374V34.0374C40.3975 34.5896 39.9497 35.0374 39.3975 35.0374H11.3975C10.8452 35.0374 10.3975 34.5896 10.3975 34.0374V16.0374Z" fill="white"/>
<path fill-rule="evenodd" clip-rule="evenodd" d="M35.4648 25.2332C34.8214 24.5053 34.0051 24.037 33.0169 23.8281C33.3312 23.3893 33.488 22.9087 33.488 22.3864C33.488 21.6481 33.2006 21.0178 32.6262 20.4954C32.0517 19.9731 31.3583 19.7119 30.5462 19.7119C29.8107 19.7119 29.1747 19.9278 28.6386 20.3597C28.1868 19.3707 27.4683 18.5697 26.484 17.9567C25.4994 17.344 24.4018 17.0374 23.1912 17.0374C21.5671 17.0374 20.1803 17.5599 19.031 18.6046C17.8817 19.6491 17.3072 20.9099 17.3072 22.3865C17.3072 22.491 17.3149 22.6407 17.3302 22.8357C16.4415 23.2118 15.7251 23.7812 15.1812 24.5441C14.6373 25.3065 14.3652 26.1477 14.3652 27.0671C14.3652 28.3556 14.8691 29.4578 15.8765 30.3736C16.8839 31.2896 18.0964 31.7476 19.5137 31.7476H32.0176C33.2356 31.7476 34.2756 31.3555 35.1376 30.5722C35.9995 29.7886 36.4305 28.8432 36.4305 27.7357C36.4304 26.7955 36.1085 25.961 35.4648 25.2332Z" fill="#77D0CB"/>
<path fill-rule="evenodd" clip-rule="evenodd" d="M8.39746 33.0374C8.39746 32.4851 8.84518 32.0374 9.39746 32.0374H41.3975C41.9497 32.0374 42.3975 32.4851 42.3975 33.0374V34.0374C42.3975 34.5896 41.9497 35.0374 41.3975 35.0374H9.39746C8.84518 35.0374 8.39746 34.5896 8.39746 34.0374V33.0374Z" fill="white"/>
<path fill-rule="evenodd" clip-rule="evenodd" d="M21.1723 27.9977L18.7178 25.6873L21.1723 23.3767L22.0185 24.1733L20.4099 25.6873L22.0185 27.2013L21.1723 27.9977Z" fill="white"/>
<path fill-rule="evenodd" clip-rule="evenodd" d="M28.5629 27.9977L27.7168 27.2013L29.3252 25.6873L27.7168 24.1733L28.5629 23.3767L31.0175 25.6873L28.5629 27.9977Z" fill="white"/>
<path fill-rule="evenodd" clip-rule="evenodd" d="M25.8469 22.7766L26.9374 23.3492L24.0673 29.3781L22.9766 28.8053L25.8469 22.7766Z" fill="white"/>
<defs>
<filter id="filter0_f_1061_11892" x="5.67918" y="14.3191" width="39.4366" height="25.4366" filterUnits="userSpaceOnUse" color-interpolation-filters="sRGB">
<feFlood flood-opacity="0" result="BackgroundImageFix"/>
<feBlend mode="normal" in="SourceGraphic" in2="BackgroundImageFix" result="shape"/>
<feGaussianBlur stdDeviation="1.35914" result="effect1_foregroundBlur_1061_11892"/>
</filter>
<linearGradient id="paint0_linear_1061_11892" x1="58.6611" y1="32.926" x2="32.5732" y2="-8.12476" gradientUnits="userSpaceOnUse">
<stop stop-color="#36CFC8"/>
<stop offset="1" stop-color="#BAF9F6"/>
</linearGradient>
</defs>
</svg>
