<svg width="51" height="51" viewBox="0 0 51 51" fill="none" xmlns="http://www.w3.org/2000/svg">
<circle cx="25.2881" cy="25.1699" r="25" fill="url(#paint0_linear_1206_2633)"/>
<g filter="url(#filter0_f_1206_2633)">
<path fill-rule="evenodd" clip-rule="evenodd" d="M10.6631 18.7532C10.6631 18.2009 11.1108 17.7532 11.6631 17.7532H39.6631C40.2154 17.7532 40.6631 18.2009 40.6631 18.7532V36.7532C40.6631 37.3055 40.2154 37.7532 39.6631 37.7532H11.6631C11.1108 37.7532 10.6631 37.3055 10.6631 36.7532V18.7532Z" fill="#6CBAF7"/>
</g>
<path fill-rule="evenodd" clip-rule="evenodd" d="M10.6631 16.7532C10.6631 16.2009 11.1108 15.7532 11.6631 15.7532H39.6631C40.2154 15.7532 40.6631 16.2009 40.6631 16.7532V34.7532C40.6631 35.3055 40.2154 35.7532 39.6631 35.7532H11.6631C11.1108 35.7532 10.6631 35.3055 10.6631 34.7532V16.7532Z" fill="white"/>
<path opacity="0.8" d="M32.682 19.6374L33.6927 18.1066L31.088 15.5061L29.5572 16.5124C29.0215 16.2166 28.454 15.9826 27.8656 15.8148L27.5019 14.0217H23.8191L23.4511 15.819C22.8628 15.9868 22.2953 16.2211 21.7596 16.5166L20.2288 15.5103L17.6283 18.1108L18.6345 19.6416C18.3388 20.177 18.1051 20.7445 17.9373 21.3328L16.1484 21.6924V25.3755L17.9457 25.7435C18.1135 26.3319 18.3478 26.899 18.6433 27.4347L17.637 28.9655L20.2375 31.5702L21.7683 30.5595C22.303 30.857 22.8709 31.091 23.4595 31.257L23.8191 33.0501H27.5022L27.8702 31.2528C28.4593 31.0868 29.0264 30.8528 29.5614 30.5553L31.0922 31.566L33.6969 28.9613L32.682 27.4305C32.9795 26.8955 33.2135 26.328 33.3795 25.7389L35.1768 25.3752V21.6924L33.3795 21.3244C33.2132 20.7367 32.9791 20.1707 32.682 19.6374ZM25.6628 30.5553C24.282 30.5553 22.958 28.1926 21.9821 27.2167C21.0058 26.2404 20.4573 24.9165 20.4573 23.536C20.4573 22.1552 21.0059 20.8312 21.9821 19.8553C22.958 18.879 24.282 18.3304 25.6628 18.3304C27.0433 18.3304 28.3672 18.8791 29.3435 19.8553C30.3194 20.8312 30.868 22.1552 30.868 23.536C30.8656 24.9157 30.3166 26.2384 29.341 27.2142C28.3651 28.1897 27.0426 30.5528 25.6628 30.5553Z" fill="#87C9FD"/>
<path d="M25.4462 25.0218C26.771 25.0218 27.8522 23.9634 27.8522 22.658C27.8522 21.3526 26.771 20.2942 25.4462 20.2942C24.1214 20.2942 23.0403 21.3526 23.0403 22.658C23.0403 23.9634 24.1214 25.0218 25.4462 25.0218Z" fill="#87C9FD" stroke="white" stroke-width="0.220241"/>
<path d="M28.1367 25.4797L28.1367 25.4798C29.1893 25.8183 29.9105 26.7868 29.9105 27.889V31.8252C29.9105 31.9738 29.8661 32.1186 29.7835 32.2415L29.7839 32.2411L29.3264 31.9348L29.7831 32.2422L28.1367 25.4797ZM28.1367 25.4797L28.127 25.4768M28.1367 25.4797L28.127 25.4768M28.127 25.4768L27.4681 25.2782C27.468 25.2782 27.468 25.2782 27.4679 25.2781C27.0933 25.1652 26.6828 25.3569 26.5419 25.7362L26.5419 25.7363M28.127 25.4768L26.5419 25.7363M26.5419 25.7363L25.4465 28.6866M26.5419 25.7363L25.4465 28.6866M25.4465 28.6866L24.3512 25.7364C24.3512 25.7364 24.3511 25.7363 24.3511 25.7363C24.2374 25.4299 23.9468 25.2458 23.644 25.2458C23.6001 25.2458 23.5652 25.2513 23.5582 25.2524C23.5579 25.2525 23.5577 25.2525 23.5575 25.2525C23.5449 25.2545 23.5347 25.2565 23.5292 25.2577C23.5177 25.26 23.5078 25.2624 23.502 25.2638C23.4894 25.2669 23.476 25.2704 23.4642 25.2736C23.4396 25.2803 23.408 25.2891 23.3734 25.299C23.3034 25.3189 23.2132 25.3451 23.1248 25.3709C23.0361 25.3969 22.9482 25.4228 22.8825 25.4421L22.8031 25.4656L22.7809 25.4722L22.775 25.4739L22.7735 25.4744L22.7731 25.4745L22.773 25.4745L22.773 25.4745L22.9295 26.0024L25.4465 28.6866Z" fill="#87C9FD" stroke="white" stroke-width="1.1012"/>
<path d="M24.8424 25.8028L24.8424 25.8028C24.7231 25.9304 24.7053 26.1161 24.7905 26.2612L24.7904 26.2614L24.7943 26.2671L25.0975 26.7159L24.9497 27.94L24.9464 27.9671L24.9562 27.9925L25.2568 28.7775C25.322 28.9516 25.5701 28.9513 25.6353 28.7776L25.9359 27.9925L25.9457 27.9671L25.9424 27.94L25.7946 26.7159L26.0979 26.2671L26.098 26.2672L26.1015 26.2613C26.1869 26.1161 26.1691 25.9304 26.0498 25.8028L25.9694 25.878L26.0498 25.8028C25.9704 25.7178 25.8584 25.6789 25.7513 25.6789H25.1409C25.0338 25.6789 24.9219 25.7179 24.8424 25.8028Z" fill="#87C9FD" stroke="white" stroke-width="0.220241"/>
<defs>
<filter id="filter0_f_1206_2633" x="7.9448" y="15.0349" width="35.4366" height="25.4366" filterUnits="userSpaceOnUse" color-interpolation-filters="sRGB">
<feFlood flood-opacity="0" result="BackgroundImageFix"/>
<feBlend mode="normal" in="SourceGraphic" in2="BackgroundImageFix" result="shape"/>
<feGaussianBlur stdDeviation="1.35914" result="effect1_foregroundBlur_1206_2633"/>
</filter>
<linearGradient id="paint0_linear_1206_2633" x1="58.5518" y1="33.0586" x2="32.4639" y2="-7.99219" gradientUnits="userSpaceOnUse">
<stop stop-color="#6CBAF7"/>
<stop offset="1" stop-color="#C8E7FF"/>
</linearGradient>
</defs>
</svg>
