<svg width="51" height="51" viewBox="0 0 51 51" fill="none" xmlns="http://www.w3.org/2000/svg">
<circle cx="25.9346" cy="25.1057" r="25" fill="url(#paint0_linear_1208_2328)"/>
<g filter="url(#filter0_f_1208_2328)">
<path fill-rule="evenodd" clip-rule="evenodd" d="M11.9346 17.1057C11.3823 17.1057 10.9346 17.5534 10.9346 18.1057V34.1057H9.93457C9.38229 34.1057 8.93457 34.5534 8.93457 35.1057V36.1057C8.93457 36.658 9.38229 37.1057 9.93457 37.1057H11.9346H39.9346H41.9346C42.4869 37.1057 42.9346 36.658 42.9346 36.1057V35.1057C42.9346 34.5534 42.4869 34.1057 41.9346 34.1057H40.9346V18.1057C40.9346 17.5534 40.4869 17.1057 39.9346 17.1057H11.9346Z" fill="#8DC774"/>
</g>
<path fill-rule="evenodd" clip-rule="evenodd" d="M11.9346 15.1057C11.3823 15.1057 10.9346 15.5534 10.9346 16.1057V32.1057H9.93457C9.38229 32.1057 8.93457 32.5534 8.93457 33.1057V34.1057C8.93457 34.658 9.38229 35.1057 9.93457 35.1057H11.9346H39.9346H41.9346C42.4869 35.1057 42.9346 34.658 42.9346 34.1057V33.1057C42.9346 32.5534 42.4869 32.1057 41.9346 32.1057H40.9346V16.1057C40.9346 15.5534 40.4869 15.1057 39.9346 15.1057H11.9346Z" fill="white"/>
<path opacity="0.8" fill-rule="evenodd" clip-rule="evenodd" d="M33.5627 25.7428C33.0752 25.1912 32.4566 24.8363 31.7078 24.678C31.946 24.3455 32.0648 23.9813 32.0648 23.5856C32.0648 23.0261 31.847 22.5485 31.4117 22.1526C30.9764 21.7568 30.451 21.5589 29.8356 21.5589C29.2783 21.5589 28.7963 21.7225 28.3901 22.0498C28.0477 21.3003 27.5033 20.6934 26.7574 20.2289C26.0113 19.7646 25.1796 19.5322 24.2623 19.5322C23.0315 19.5322 21.9807 19.9282 21.1098 20.7198C20.2389 21.5113 19.8036 22.4667 19.8036 23.5856C19.8036 23.6648 19.8094 23.7782 19.821 23.926C19.1476 24.211 18.6047 24.6425 18.1925 25.2205C17.7804 25.7983 17.5742 26.4357 17.5742 27.1324C17.5742 28.1088 17.956 28.944 18.7194 29.6379C19.4828 30.3321 20.4016 30.6791 21.4756 30.6791H30.9505C31.8735 30.6791 32.6616 30.382 33.3148 29.7884C33.9679 29.1947 34.2945 28.4783 34.2945 27.639C34.2944 26.9266 34.0505 26.2942 33.5627 25.7428Z" fill="#8BC670"/>
<path fill-rule="evenodd" clip-rule="evenodd" d="M33.8247 19.5831L34.0176 20.0514C34.0176 20.0514 35.0686 20.4326 35.0682 20.4908V21.3299C35.0682 21.3863 34.0191 21.7997 34.0191 21.7997L33.8264 22.2673C33.8264 22.2673 34.2999 23.2803 34.2584 23.3219L33.6643 23.9154C33.6243 23.9548 32.5917 23.5056 32.5917 23.5056L32.1236 23.6991C32.1236 23.6991 31.7412 24.7501 31.6831 24.7501H30.8443C30.7873 24.7501 30.3744 23.702 30.3744 23.702L29.9067 23.5085C29.9067 23.5085 28.8929 23.9809 28.8526 23.9407L28.2584 23.3465C28.2191 23.3067 28.6681 22.2727 28.6681 22.2727L28.4751 21.8058C28.4751 21.8058 27.4238 21.4236 27.4238 21.365V20.5252C27.4238 20.4695 28.4726 20.0569 28.4726 20.0569L28.6656 19.5892C28.6656 19.5892 28.1933 18.5755 28.2343 18.5346L28.8278 17.9411C28.8674 17.901 29.9021 18.3502 29.9021 18.3502L30.3688 18.1567C30.3688 18.1567 30.7508 17.1057 30.8093 17.1057H31.6481C31.7047 17.1057 32.1176 18.1545 32.1176 18.1545L32.585 18.3473C32.585 18.3473 33.5984 17.875 33.6395 17.9158L34.234 18.5086C34.2736 18.5484 33.8247 19.5831 33.8247 19.5831ZM31.2461 22.1528C31.9217 22.1528 32.4716 21.6031 32.4716 20.9278C32.4716 20.2526 31.922 19.704 31.2461 19.7036C30.5712 19.7036 30.0206 20.2526 30.0206 20.9278C30.0206 21.6031 30.5712 22.1528 31.2461 22.1528Z" fill="#A2D18D"/>
<path d="M34.0176 20.0514L33.7151 20.1761L33.7702 20.3098L33.9061 20.3591L34.0176 20.0514ZM33.8247 19.5831L33.5245 19.4528L33.4694 19.5798L33.5221 19.7077L33.8247 19.5831ZM35.0682 20.4908L34.741 20.4889V20.4908H35.0682ZM34.0191 21.7997L33.8991 21.4952L33.7695 21.5463L33.7165 21.6751L34.0191 21.7997ZM33.8264 22.2673L33.5239 22.1427L33.4691 22.2756L33.53 22.4059L33.8264 22.2673ZM34.2584 23.3219L34.4897 23.5534L34.4903 23.5529L34.2584 23.3219ZM33.6643 23.9154L33.8939 24.1485L33.8955 24.1469L33.6643 23.9154ZM32.5917 23.5056L32.7223 23.2056L32.595 23.1502L32.4667 23.2032L32.5917 23.5056ZM32.1236 23.6991L31.9986 23.3967L31.8654 23.4518L31.8161 23.5872L32.1236 23.6991ZM30.3744 23.702L30.6789 23.5821L30.628 23.4528L30.4995 23.3996L30.3744 23.702ZM29.9067 23.5085L30.0318 23.2061L29.8989 23.1512L29.7685 23.2119L29.9067 23.5085ZM28.8526 23.9407L28.6212 24.1721L28.6218 24.1727L28.8526 23.9407ZM28.2584 23.3465L28.0256 23.5765L28.027 23.5779L28.2584 23.3465ZM28.6681 22.2727L28.9683 22.4031L29.0235 22.2759L28.9705 22.1477L28.6681 22.2727ZM28.4751 21.8058L28.7775 21.6808L28.7225 21.5476L28.5869 21.4983L28.4751 21.8058ZM28.4726 20.0569L28.5924 20.3614L28.722 20.3104L28.7751 20.1817L28.4726 20.0569ZM28.6656 19.5892L28.9681 19.7141L29.0229 19.5812L28.9622 19.451L28.6656 19.5892ZM28.2343 18.5346L28.4651 18.7666L28.4657 18.766L28.2343 18.5346ZM28.8278 17.9411L29.0592 18.1725L29.0606 18.1711L28.8278 17.9411ZM29.9021 18.3502L29.7718 18.6504L29.8991 18.7056L30.0274 18.6525L29.9021 18.3502ZM30.3688 18.1567L30.4941 18.459L30.6271 18.4038L30.6763 18.2685L30.3688 18.1567ZM32.1176 18.1545L31.8131 18.2744L31.8641 18.404L31.9928 18.457L32.1176 18.1545ZM32.585 18.3473L32.4602 18.6498L32.593 18.7046L32.7232 18.6439L32.585 18.3473ZM33.6395 17.9158L33.8705 17.6841L33.8703 17.6839L33.6395 17.9158ZM34.234 18.5086L34.4657 18.2776L34.465 18.2769L34.234 18.5086ZM31.2461 19.7036L31.2462 19.3764H31.2461V19.7036ZM34.3202 19.9268L34.1272 19.4584L33.5221 19.7077L33.7151 20.1761L34.3202 19.9268ZM35.3955 20.4928C35.3962 20.3752 35.3356 20.2982 35.319 20.2778C35.2951 20.2485 35.2708 20.2285 35.2578 20.2183C35.2303 20.1969 35.2018 20.1802 35.1825 20.1694C35.1408 20.1462 35.0892 20.1218 35.0375 20.0988C34.9318 20.0516 34.7946 19.9962 34.6621 19.9445C34.5285 19.8923 34.3954 19.8422 34.2959 19.8052C34.2461 19.7867 34.2046 19.7714 34.1755 19.7607C34.1609 19.7553 34.1494 19.7512 34.1415 19.7483C34.1376 19.7468 34.1346 19.7457 34.1325 19.745C34.1314 19.7446 34.1307 19.7443 34.1301 19.7441C34.1298 19.744 34.1296 19.7439 34.1295 19.7439C34.1294 19.7439 34.1293 19.7438 34.1293 19.7438C34.1293 19.7438 34.1293 19.7438 34.1293 19.7438C34.1292 19.7438 34.1292 19.7438 34.0176 20.0514C33.9061 20.3591 33.9061 20.3591 33.9061 20.3591C33.9061 20.3591 33.9061 20.3591 33.9061 20.3591C33.9061 20.3591 33.9061 20.3591 33.9062 20.3591C33.9063 20.3591 33.9065 20.3592 33.9067 20.3593C33.9072 20.3595 33.9079 20.3597 33.9088 20.3601C33.9107 20.3608 33.9136 20.3618 33.9174 20.3632C33.9249 20.3659 33.936 20.37 33.9501 20.3752C33.9785 20.3855 34.019 20.4005 34.0678 20.4186C34.1653 20.4549 34.2949 20.5037 34.424 20.5541C34.5542 20.605 34.6797 20.6558 34.7709 20.6965C34.8177 20.7174 34.8481 20.7323 34.8639 20.7411C34.8732 20.7463 34.8673 20.7438 34.8552 20.7343C34.8498 20.7301 34.8315 20.7156 34.8115 20.6911C34.7989 20.6756 34.7403 20.6029 34.741 20.4889L35.3955 20.4928ZM35.3955 21.3299V20.4908H34.741V21.3299H35.3955ZM34.0191 21.7997C34.139 22.1041 34.139 22.1041 34.139 22.1041C34.1391 22.1041 34.1391 22.1041 34.1391 22.1041C34.1391 22.1041 34.1392 22.1041 34.1393 22.104C34.1394 22.104 34.1396 22.1039 34.1399 22.1038C34.1404 22.1036 34.1412 22.1033 34.1423 22.1029C34.1443 22.1021 34.1473 22.1009 34.1513 22.0993C34.1591 22.0962 34.1706 22.0917 34.1851 22.0859C34.2142 22.0743 34.2556 22.0578 34.3053 22.0377C34.4045 21.9977 34.5374 21.9436 34.6706 21.8876C34.8028 21.8319 34.9394 21.7726 35.0446 21.7227C35.0961 21.6983 35.147 21.6728 35.1878 21.6491C35.2068 21.638 35.2342 21.6213 35.2604 21.6003C35.2729 21.5904 35.296 21.571 35.3189 21.5429C35.3333 21.5252 35.3955 21.4483 35.3955 21.3299H34.741C34.741 21.215 34.8011 21.1423 34.8115 21.1295C34.8305 21.1063 34.8477 21.0924 34.8524 21.0886C34.8634 21.0799 34.8682 21.0778 34.8585 21.0835C34.8419 21.0931 34.8109 21.1092 34.764 21.1315C34.6724 21.1749 34.5467 21.2296 34.4167 21.2843C34.2876 21.3387 34.1582 21.3914 34.0607 21.4307C34.012 21.4503 33.9715 21.4665 33.9432 21.4778C33.929 21.4834 33.9179 21.4878 33.9104 21.4908C33.9067 21.4923 33.9038 21.4934 33.9019 21.4941C33.9009 21.4945 33.9002 21.4948 33.8998 21.495C33.8995 21.4951 33.8993 21.4951 33.8992 21.4952C33.8992 21.4952 33.8991 21.4952 33.8991 21.4952C33.8991 21.4952 33.8991 21.4952 33.8991 21.4952C33.8991 21.4952 33.8991 21.4952 34.0191 21.7997ZM34.129 22.392L34.3216 21.9243L33.7165 21.6751L33.5239 22.1427L34.129 22.392ZM34.4903 23.5529C34.5723 23.4705 34.5837 23.3745 34.5864 23.3484C34.5902 23.3109 34.5872 23.2798 34.5852 23.2633C34.5809 23.2287 34.5726 23.1968 34.5666 23.1754C34.5536 23.1294 34.5343 23.0756 34.5141 23.0227C34.4726 22.9144 34.4148 22.7781 34.3577 22.6478C34.3002 22.5163 34.2415 22.3867 34.1973 22.2901C34.1752 22.2418 34.1567 22.2016 34.1436 22.1734C34.1371 22.1593 34.132 22.1482 34.1284 22.1406C34.1267 22.1368 34.1253 22.1339 34.1244 22.1319C34.1239 22.1309 34.1235 22.1301 34.1233 22.1296C34.1232 22.1294 34.1231 22.1292 34.123 22.129C34.123 22.1289 34.123 22.1289 34.1229 22.1288C34.1229 22.1288 34.1229 22.1288 34.1229 22.1288C34.1229 22.1288 34.1229 22.1288 33.8264 22.2673C33.53 22.4059 33.53 22.4059 33.53 22.4059C33.53 22.4059 33.53 22.4059 33.53 22.4059C33.53 22.4059 33.53 22.4059 33.53 22.406C33.5301 22.4061 33.5302 22.4063 33.5303 22.4065C33.5305 22.4069 33.5308 22.4076 33.5312 22.4085C33.5321 22.4104 33.5334 22.4131 33.5351 22.4168C33.5384 22.424 33.5434 22.4347 33.5498 22.4484C33.5624 22.4758 33.5806 22.5151 33.6022 22.5624C33.6455 22.6571 33.7026 22.7833 33.7582 22.9103C33.8143 23.0383 33.8671 23.1631 33.9028 23.2565C33.9211 23.3044 33.932 23.3365 33.9369 23.3539C33.9398 23.3642 33.9375 23.3583 33.9356 23.3431C33.9348 23.3363 33.9321 23.3133 33.9353 23.2821C33.9373 23.2622 33.9471 23.1707 34.0266 23.091L34.4903 23.5529ZM33.8955 24.1469L34.4897 23.5534L34.0272 23.0904L33.433 23.6839L33.8955 24.1469ZM32.5917 23.5056C32.4612 23.8057 32.4612 23.8057 32.4612 23.8057C32.4612 23.8057 32.4612 23.8057 32.4613 23.8057C32.4613 23.8058 32.4614 23.8058 32.4614 23.8058C32.4616 23.8059 32.4618 23.806 32.4621 23.8061C32.4626 23.8063 32.4634 23.8067 32.4644 23.8071C32.4664 23.808 32.4694 23.8093 32.4733 23.8109C32.481 23.8143 32.4923 23.8192 32.5066 23.8254C32.5353 23.8377 32.5762 23.8553 32.6255 23.8763C32.7238 23.9181 32.8557 23.9737 32.9894 24.0283C33.122 24.0824 33.2603 24.1371 33.3698 24.1762C33.4233 24.1953 33.4772 24.2133 33.5227 24.2254C33.5439 24.231 33.575 24.2386 33.6082 24.2424C33.6239 24.2442 33.6537 24.2469 33.6896 24.2434C33.7118 24.2412 33.8099 24.2313 33.8939 24.1485L33.4346 23.6823C33.5162 23.6019 33.6098 23.5936 33.6258 23.592C33.6554 23.5891 33.6771 23.5915 33.6831 23.5922C33.6968 23.5938 33.7015 23.5957 33.6906 23.5928C33.672 23.5879 33.6387 23.5773 33.5898 23.5598C33.4945 23.5258 33.3671 23.4755 33.2366 23.4223C33.1071 23.3695 32.9785 23.3153 32.8819 23.2741C32.8337 23.2536 32.7937 23.2364 32.7657 23.2244C32.7518 23.2183 32.7408 23.2136 32.7334 23.2104C32.7297 23.2088 32.7269 23.2076 32.725 23.2068C32.7241 23.2063 32.7234 23.206 32.7229 23.2058C32.7227 23.2057 32.7225 23.2057 32.7224 23.2056C32.7224 23.2056 32.7223 23.2056 32.7223 23.2056C32.7223 23.2056 32.7223 23.2056 32.7223 23.2056C32.7223 23.2056 32.7223 23.2056 32.5917 23.5056ZM32.2486 24.0015L32.7167 23.8081L32.4667 23.2032L31.9986 23.3967L32.2486 24.0015ZM31.6831 25.0773C31.8005 25.0773 31.877 25.0166 31.8969 25.0002C31.926 24.9764 31.9458 24.9523 31.9559 24.9393C31.9772 24.9119 31.9938 24.8836 32.0046 24.8642C32.0278 24.8226 32.0522 24.771 32.0752 24.7194C32.1225 24.6136 32.178 24.4765 32.2299 24.3439C32.2822 24.2103 32.3325 24.0772 32.3696 23.9777C32.3881 23.9279 32.4035 23.8864 32.4142 23.8572C32.4196 23.8427 32.4238 23.8312 32.4267 23.8233C32.4281 23.8194 32.4292 23.8163 32.43 23.8143C32.4303 23.8132 32.4306 23.8124 32.4308 23.8119C32.4309 23.8116 32.431 23.8114 32.4311 23.8113C32.4311 23.8112 32.4311 23.8111 32.4311 23.8111C32.4311 23.8111 32.4311 23.8111 32.4311 23.811C32.4311 23.811 32.4311 23.811 32.1236 23.6991C31.8161 23.5872 31.8161 23.5872 31.8161 23.5872C31.8161 23.5872 31.8161 23.5872 31.8161 23.5873C31.8161 23.5873 31.8161 23.5873 31.8161 23.5874C31.816 23.5875 31.816 23.5876 31.8159 23.5879C31.8157 23.5883 31.8155 23.5891 31.8151 23.59C31.8144 23.5919 31.8134 23.5948 31.812 23.5985C31.8092 23.6061 31.8052 23.6172 31.8 23.6313C31.7895 23.6597 31.7746 23.7002 31.7564 23.749C31.72 23.8466 31.671 23.9762 31.6204 24.1053C31.5695 24.2355 31.5185 24.3611 31.4777 24.4524C31.4568 24.4993 31.4417 24.5298 31.4329 24.5457C31.4276 24.5551 31.4301 24.5493 31.4394 24.5373C31.4435 24.532 31.4579 24.5138 31.4821 24.494C31.4972 24.4816 31.5694 24.4229 31.6831 24.4229V25.0773ZM30.8443 25.0773H31.6831V24.4229H30.8443V25.0773ZM30.3744 23.702C30.07 23.822 30.07 23.822 30.07 23.822C30.07 23.822 30.07 23.822 30.07 23.822C30.07 23.8221 30.07 23.8221 30.0701 23.8222C30.0701 23.8223 30.0702 23.8226 30.0703 23.8228C30.0705 23.8234 30.0708 23.8242 30.0713 23.8252C30.0721 23.8273 30.0733 23.8303 30.0748 23.8342C30.0779 23.842 30.0825 23.8535 30.0882 23.868C30.0998 23.8971 30.1163 23.9384 30.1363 23.9881C30.1763 24.0872 30.2304 24.2199 30.2864 24.3531C30.3421 24.4852 30.4013 24.6217 30.4513 24.7269C30.4758 24.7783 30.5013 24.8293 30.5252 24.8702C30.5363 24.8892 30.5532 24.9167 30.5743 24.943C30.5844 24.9555 30.6039 24.9787 30.6322 25.0016C30.6504 25.0163 30.727 25.0773 30.8443 25.0773V24.4229C30.9581 24.4229 31.0304 24.4819 31.0437 24.4926C31.0671 24.5116 31.0811 24.5288 31.0849 24.5336C31.0938 24.5447 31.0959 24.5496 31.0903 24.54C31.0807 24.5236 31.0646 24.4926 31.0424 24.4458C30.9989 24.3544 30.9443 24.2289 30.8896 24.0991C30.8353 23.9702 30.7826 23.8408 30.7434 23.7435C30.7238 23.6949 30.7076 23.6544 30.6964 23.6261C30.6907 23.612 30.6863 23.6009 30.6834 23.5934C30.6819 23.5896 30.6808 23.5868 30.68 23.5849C30.6796 23.5839 30.6793 23.5832 30.6792 23.5827C30.6791 23.5825 30.679 23.5823 30.679 23.5822C30.6789 23.5822 30.6789 23.5821 30.6789 23.5821C30.6789 23.5821 30.6789 23.5821 30.6789 23.5821C30.6789 23.5821 30.6789 23.5821 30.3744 23.702ZM29.7816 23.8109L30.2494 24.0044L30.4995 23.3996L30.0318 23.2061L29.7816 23.8109ZM28.6218 24.1727C28.7061 24.2566 28.8048 24.2666 28.8293 24.2689C28.8664 24.2723 28.8972 24.2691 28.9133 24.267C28.9473 24.2626 28.9787 24.2543 28.9998 24.2482C29.0453 24.2351 29.0987 24.2159 29.1515 24.1956C29.2595 24.1542 29.3955 24.0965 29.5259 24.0395C29.6573 23.982 29.7869 23.9235 29.8835 23.8794C29.9319 23.8574 29.9721 23.8388 30.0002 23.8258C30.0143 23.8193 30.0254 23.8142 30.033 23.8107C30.0368 23.8089 30.0398 23.8075 30.0418 23.8066C30.0428 23.8061 30.0435 23.8058 30.044 23.8055C30.0443 23.8054 30.0445 23.8053 30.0447 23.8053C30.0447 23.8052 30.0448 23.8052 30.0448 23.8052C30.0448 23.8052 30.0449 23.8052 30.0449 23.8052C30.0449 23.8052 30.0449 23.8052 29.9067 23.5085C29.7685 23.2119 29.7685 23.2119 29.7685 23.2119C29.7685 23.2119 29.7685 23.2119 29.7685 23.2119C29.7684 23.2119 29.7684 23.2119 29.7684 23.212C29.7683 23.212 29.7681 23.2121 29.7679 23.2122C29.7674 23.2124 29.7667 23.2127 29.7658 23.2132C29.764 23.214 29.7612 23.2153 29.7576 23.217C29.7503 23.2204 29.7396 23.2253 29.7259 23.2317C29.6984 23.2443 29.6591 23.2624 29.6118 23.284C29.517 23.3272 29.3907 23.3843 29.2636 23.4399C29.1355 23.4959 29.0106 23.5487 28.9171 23.5846C28.8692 23.603 28.8368 23.6141 28.8191 23.6192C28.8086 23.6222 28.8142 23.6199 28.8289 23.618C28.8353 23.6171 28.858 23.6143 28.8889 23.6171C28.9073 23.6188 29.0015 23.6274 29.0833 23.7087L28.6218 24.1727ZM28.027 23.5779L28.6212 24.1721L29.084 23.7093L28.4898 23.1151L28.027 23.5779ZM28.6681 22.2727C28.3679 22.1424 28.3679 22.1424 28.3679 22.1424C28.3679 22.1424 28.3679 22.1425 28.3679 22.1425C28.3679 22.1425 28.3679 22.1426 28.3678 22.1426C28.3678 22.1428 28.3677 22.143 28.3676 22.1433C28.3673 22.1438 28.367 22.1446 28.3665 22.1456C28.3657 22.1476 28.3644 22.1506 28.3627 22.1545C28.3593 22.1622 28.3545 22.1735 28.3483 22.1879C28.3359 22.2166 28.3184 22.2576 28.2974 22.3069C28.2556 22.4053 28.2 22.5374 28.1455 22.6712C28.0913 22.8041 28.0367 22.9425 27.9976 23.052C27.9785 23.1056 27.9605 23.1595 27.9484 23.205C27.9428 23.2262 27.9353 23.2571 27.9315 23.2903C27.9297 23.3059 27.9269 23.3357 27.9304 23.3715C27.9326 23.3936 27.9423 23.4922 28.0256 23.5765L28.4912 23.1165C28.5721 23.1984 28.5803 23.2925 28.5818 23.3083C28.5847 23.3379 28.5823 23.3596 28.5816 23.3655C28.58 23.3791 28.5781 23.3838 28.581 23.3729C28.586 23.3542 28.5966 23.3208 28.6141 23.2719C28.6481 23.1764 28.6983 23.0488 28.7516 22.9182C28.8044 22.7885 28.8586 22.6597 28.8997 22.563C28.9202 22.5147 28.9374 22.4746 28.9495 22.4466C28.9555 22.4326 28.9602 22.4217 28.9634 22.4142C28.965 22.4105 28.9662 22.4077 28.9671 22.4058C28.9675 22.4049 28.9678 22.4042 28.968 22.4037C28.9681 22.4035 28.9681 22.4033 28.9682 22.4032C28.9682 22.4032 28.9682 22.4031 28.9682 22.4031C28.9682 22.4031 28.9682 22.4031 28.9683 22.4031C28.9683 22.4031 28.9683 22.4031 28.6681 22.2727ZM28.1727 21.9308L28.3657 22.3977L28.9705 22.1477L28.7775 21.6808L28.1727 21.9308ZM27.0966 21.365C27.0966 21.4815 27.1566 21.5577 27.1731 21.5781C27.1969 21.6073 27.2211 21.6272 27.2341 21.6374C27.2616 21.6589 27.29 21.6756 27.3094 21.6864C27.3511 21.7097 27.4028 21.7342 27.4545 21.7573C27.5603 21.8046 27.6976 21.8602 27.8302 21.9121C27.9638 21.9644 28.097 22.0147 28.1965 22.0518C28.2463 22.0704 28.2879 22.0857 28.317 22.0964C28.3316 22.1018 28.3431 22.106 28.351 22.1089C28.3549 22.1103 28.358 22.1114 28.36 22.1122C28.3611 22.1126 28.3619 22.1129 28.3624 22.1131C28.3627 22.1132 28.3629 22.1132 28.363 22.1133C28.3631 22.1133 28.3632 22.1133 28.3632 22.1133C28.3632 22.1134 28.3632 22.1134 28.3633 22.1134C28.3633 22.1134 28.3633 22.1134 28.4751 21.8058C28.5869 21.4983 28.5869 21.4983 28.5869 21.4983C28.5869 21.4983 28.5869 21.4983 28.5869 21.4983C28.5869 21.4983 28.5869 21.4983 28.5868 21.4983C28.5867 21.4982 28.5865 21.4982 28.5863 21.4981C28.5858 21.4979 28.5851 21.4976 28.5842 21.4973C28.5823 21.4966 28.5794 21.4956 28.5756 21.4942C28.5681 21.4914 28.557 21.4874 28.5428 21.4822C28.5145 21.4717 28.4739 21.4568 28.4252 21.4386C28.3276 21.4022 28.1979 21.3532 28.0688 21.3027C27.9385 21.2517 27.813 21.2007 27.7217 21.1599C27.6748 21.1389 27.6444 21.1239 27.6286 21.1151C27.6192 21.1098 27.6251 21.1123 27.6372 21.1218C27.6425 21.1259 27.6607 21.1404 27.6805 21.1647C27.6931 21.1802 27.7511 21.2521 27.7511 21.365H27.0966ZM27.0966 20.5252V21.365H27.7511V20.5252H27.0966ZM28.4726 20.0569C28.3528 19.7523 28.3528 19.7523 28.3528 19.7523C28.3528 19.7524 28.3528 19.7524 28.3527 19.7524C28.3527 19.7524 28.3527 19.7524 28.3526 19.7524C28.3524 19.7525 28.3522 19.7526 28.352 19.7527C28.3514 19.7529 28.3506 19.7532 28.3496 19.7536C28.3475 19.7544 28.3445 19.7556 28.3406 19.7572C28.3327 19.7603 28.3213 19.7648 28.3068 19.7706C28.2777 19.7821 28.2363 19.7986 28.1866 19.8186C28.0874 19.8585 27.9547 19.9125 27.8215 19.9684C27.6893 20.024 27.5528 20.083 27.4478 20.1327C27.3964 20.157 27.3455 20.1824 27.3049 20.2059C27.2859 20.2169 27.2587 20.2335 27.2325 20.2542C27.2201 20.264 27.197 20.2832 27.174 20.3112C27.16 20.3283 27.0966 20.4057 27.0966 20.5252H27.7511C27.7511 20.6413 27.6897 20.7144 27.6796 20.7268C27.6606 20.7499 27.6434 20.7636 27.6387 20.7673C27.6279 20.7759 27.6232 20.7779 27.6329 20.7722C27.6496 20.7626 27.6807 20.7465 27.7277 20.7243C27.8192 20.681 27.9449 20.6265 28.0749 20.5718C28.204 20.5177 28.3334 20.465 28.4309 20.4258C28.4796 20.4062 28.5201 20.3901 28.5484 20.3788C28.5625 20.3732 28.5736 20.3688 28.5811 20.3658C28.5849 20.3643 28.5878 20.3632 28.5897 20.3625C28.5906 20.3621 28.5913 20.3618 28.5918 20.3616C28.592 20.3615 28.5922 20.3615 28.5923 20.3614C28.5924 20.3614 28.5924 20.3614 28.5924 20.3614C28.5924 20.3614 28.5924 20.3614 28.5924 20.3614C28.5924 20.3614 28.5924 20.3614 28.4726 20.0569ZM28.3631 19.4644L28.1701 19.932L28.7751 20.1817L28.9681 19.7141L28.3631 19.4644ZM28.0035 18.3027C27.9201 18.3857 27.9089 18.4831 27.9063 18.5088C27.9026 18.5462 27.9056 18.5773 27.9077 18.5936C27.912 18.628 27.9203 18.6598 27.9263 18.6811C27.9393 18.7269 27.9585 18.7806 27.9787 18.8334C28.02 18.9416 28.0777 19.0778 28.1347 19.2083C28.1921 19.3397 28.2507 19.4694 28.2947 19.566C28.3168 19.6144 28.3353 19.6546 28.3483 19.6828C28.3548 19.6969 28.3599 19.708 28.3635 19.7156C28.3652 19.7194 28.3666 19.7223 28.3675 19.7243C28.368 19.7253 28.3684 19.7261 28.3686 19.7266C28.3687 19.7269 28.3688 19.7271 28.3689 19.7272C28.3689 19.7273 28.3689 19.7273 28.369 19.7274C28.369 19.7274 28.369 19.7274 28.369 19.7274C28.369 19.7274 28.369 19.7274 28.6656 19.5892C28.9622 19.451 28.9622 19.451 28.9622 19.451C28.9622 19.451 28.9622 19.451 28.9622 19.451C28.9622 19.451 28.9622 19.4509 28.9622 19.4509C28.9621 19.4508 28.962 19.4506 28.9619 19.4504C28.9617 19.4499 28.9614 19.4493 28.961 19.4483C28.9601 19.4465 28.9588 19.4437 28.9572 19.4401C28.9538 19.4328 28.9488 19.4221 28.9425 19.4084C28.9298 19.381 28.9118 19.3417 28.8902 19.2944C28.8469 19.1996 28.79 19.0733 28.7344 18.9462C28.6785 18.8181 28.6258 18.6933 28.5901 18.5999C28.5718 18.5519 28.5608 18.5197 28.5559 18.5023C28.5529 18.4919 28.5553 18.4977 28.5571 18.5128C28.558 18.5195 28.5607 18.5425 28.5576 18.5737C28.5556 18.5932 28.546 18.6861 28.4651 18.7666L28.0035 18.3027ZM28.5964 17.7098L28.0029 18.3032L28.4657 18.766L29.0592 18.1725L28.5964 17.7098ZM29.9021 18.3502C30.0324 18.05 30.0324 18.05 30.0324 18.05C30.0324 18.05 30.0323 18.05 30.0323 18.05C30.0323 18.05 30.0322 18.0499 30.0322 18.0499C30.032 18.0498 30.0318 18.0498 30.0315 18.0496C30.031 18.0494 30.0302 18.0491 30.0292 18.0486C30.0272 18.0477 30.0242 18.0465 30.0203 18.0448C30.0126 18.0414 30.0012 18.0365 29.9869 18.0304C29.9581 18.018 29.9171 18.0004 29.8678 17.9795C29.7693 17.9376 29.6371 17.882 29.5032 17.8275C29.3702 17.7734 29.2317 17.7188 29.122 17.6798C29.0683 17.6607 29.0143 17.6427 28.9686 17.6307C28.9473 17.6251 28.9161 17.6176 28.8825 17.6139C28.8667 17.6121 28.8365 17.6095 28.8002 17.6133C28.7773 17.6157 28.6786 17.6266 28.595 17.7112L29.0606 18.1711C28.9795 18.2532 28.8852 18.2625 28.8685 18.2642C28.8385 18.2674 28.8163 18.265 28.8102 18.2644C28.7962 18.2628 28.7913 18.2608 28.8021 18.2637C28.8206 18.2685 28.8538 18.2791 28.9028 18.2965C28.9982 18.3304 29.1258 18.3805 29.2565 18.4337C29.3862 18.4865 29.5151 18.5407 29.6118 18.5818C29.6601 18.6023 29.7002 18.6195 29.7282 18.6316C29.7422 18.6376 29.7532 18.6423 29.7606 18.6455C29.7643 18.6471 29.7671 18.6483 29.769 18.6492C29.77 18.6496 29.7707 18.6499 29.7711 18.6501C29.7714 18.6502 29.7715 18.6502 29.7716 18.6503C29.7717 18.6503 29.7717 18.6503 29.7718 18.6503C29.7718 18.6503 29.7718 18.6504 29.7718 18.6504C29.7718 18.6504 29.7718 18.6504 29.9021 18.3502ZM30.2434 17.8544L29.7768 18.0479L30.0274 18.6525L30.4941 18.459L30.2434 17.8544ZM30.8093 16.7785C30.6925 16.7785 30.6162 16.8387 30.5959 16.8552C30.5668 16.879 30.5469 16.9031 30.5367 16.9162C30.5153 16.9436 30.4986 16.972 30.4878 16.9914C30.4646 17.0331 30.4401 17.0847 30.417 17.1364C30.3697 17.2422 30.3142 17.3794 30.2624 17.512C30.2101 17.6456 30.1598 17.7787 30.1228 17.8782C30.1042 17.928 30.0889 17.9695 30.0782 17.9987C30.0728 18.0132 30.0686 18.0247 30.0657 18.0326C30.0643 18.0365 30.0632 18.0396 30.0624 18.0416C30.062 18.0427 30.0617 18.0435 30.0615 18.044C30.0614 18.0443 30.0614 18.0445 30.0613 18.0446C30.0613 18.0447 30.0613 18.0448 30.0613 18.0448C30.0612 18.0448 30.0612 18.0449 30.0612 18.0449C30.0612 18.0449 30.0612 18.0449 30.3688 18.1567C30.6763 18.2685 30.6763 18.2685 30.6763 18.2685C30.6763 18.2685 30.6763 18.2685 30.6763 18.2685C30.6763 18.2685 30.6763 18.2684 30.6764 18.2684C30.6764 18.2683 30.6765 18.2681 30.6766 18.2679C30.6767 18.2674 30.677 18.2667 30.6773 18.2657C30.678 18.2638 30.6791 18.261 30.6804 18.2572C30.6832 18.2497 30.6873 18.2386 30.6925 18.2244C30.7029 18.1961 30.7178 18.1555 30.736 18.1068C30.7724 18.0092 30.8213 17.8796 30.8718 17.7505C30.9228 17.6203 30.9738 17.4947 31.0145 17.4034C31.0355 17.3566 31.0505 17.3262 31.0593 17.3103C31.0645 17.301 31.0621 17.3068 31.0527 17.3188C31.0485 17.3242 31.0341 17.3424 31.0098 17.3622C30.9944 17.3748 30.9224 17.4329 30.8093 17.4329V16.7785ZM31.6481 16.7785H30.8093V17.4329H31.6481V16.7785ZM32.1176 18.1545C32.4221 18.0347 32.4221 18.0346 32.4221 18.0346C32.4221 18.0346 32.4221 18.0346 32.4221 18.0346C32.4221 18.0345 32.422 18.0345 32.422 18.0344C32.422 18.0343 32.4219 18.0341 32.4218 18.0338C32.4215 18.0332 32.4212 18.0325 32.4208 18.0314C32.42 18.0294 32.4188 18.0263 32.4173 18.0224C32.4142 18.0146 32.4096 18.0031 32.4039 17.9886C32.3923 17.9595 32.3758 17.9181 32.3558 17.8684C32.3158 17.7692 32.2618 17.6364 32.2057 17.5032C32.1501 17.371 32.0909 17.2344 32.041 17.1293C32.0166 17.0778 31.9911 17.0269 31.9673 16.986C31.9562 16.967 31.9394 16.9396 31.9184 16.9133C31.9084 16.9008 31.889 16.8777 31.8608 16.8547C31.8428 16.8402 31.7661 16.7785 31.6481 16.7785V17.4329C31.5336 17.4329 31.4611 17.3733 31.4481 17.3627C31.4247 17.3437 31.4108 17.3265 31.407 17.3217C31.3983 17.3107 31.3962 17.3059 31.4018 17.3155C31.4114 17.332 31.4275 17.363 31.4497 17.4099C31.4932 17.5014 31.5478 17.627 31.6025 17.757C31.6567 17.886 31.7094 18.0154 31.7487 18.1129C31.7683 18.1615 31.7844 18.202 31.7957 18.2303C31.8013 18.2445 31.8057 18.2556 31.8087 18.2631C31.8101 18.2668 31.8113 18.2697 31.812 18.2716C31.8124 18.2726 31.8127 18.2733 31.8129 18.2737C31.813 18.274 31.813 18.2741 31.8131 18.2743C31.8131 18.2743 31.8131 18.2743 31.8131 18.2744C31.8131 18.2744 31.8131 18.2744 31.8131 18.2744C31.8131 18.2744 31.8131 18.2744 32.1176 18.1545ZM32.7098 18.0448L32.2424 17.852L31.9928 18.457L32.4602 18.6498L32.7098 18.0448ZM33.8703 17.6839C33.7872 17.6011 33.6901 17.5903 33.6646 17.5878C33.6274 17.5841 33.5964 17.5872 33.5801 17.5893C33.5458 17.5936 33.5141 17.6018 33.4928 17.6079C33.4471 17.6209 33.3934 17.6401 33.3405 17.6603C33.2324 17.7017 33.0962 17.7594 32.9658 17.8164C32.8344 17.8738 32.7047 17.9324 32.6082 17.9764C32.5598 17.9985 32.5196 18.017 32.4914 18.03C32.4773 18.0365 32.4662 18.0416 32.4586 18.0452C32.4548 18.0469 32.4519 18.0483 32.4499 18.0492C32.4489 18.0497 32.4481 18.05 32.4476 18.0503C32.4474 18.0504 32.4471 18.0505 32.447 18.0506C32.4469 18.0506 32.4469 18.0506 32.4468 18.0507C32.4468 18.0507 32.4468 18.0507 32.4468 18.0507C32.4468 18.0507 32.4468 18.0507 32.585 18.3473C32.7232 18.6439 32.7232 18.6439 32.7232 18.6439C32.7233 18.6439 32.7233 18.6439 32.7233 18.6439C32.7233 18.6439 32.7233 18.6439 32.7234 18.6438C32.7235 18.6438 32.7236 18.6437 32.7239 18.6436C32.7243 18.6434 32.725 18.6431 32.7259 18.6426C32.7278 18.6418 32.7305 18.6405 32.7342 18.6388C32.7414 18.6355 32.7521 18.6305 32.7658 18.6242C32.7932 18.6115 32.8325 18.5934 32.8798 18.5718C32.9746 18.5286 33.1008 18.4716 33.2279 18.4161C33.356 18.3601 33.4808 18.3074 33.5743 18.2717C33.6222 18.2533 33.6544 18.2424 33.6719 18.2374C33.6823 18.2344 33.6766 18.2368 33.6616 18.2386C33.655 18.2395 33.6321 18.2422 33.601 18.2392C33.5818 18.2373 33.4892 18.228 33.4087 18.1478L33.8703 17.6839ZM34.465 18.2769L33.8705 17.6841L33.4084 18.1476L34.0029 18.7403L34.465 18.2769ZM33.8247 19.5831C34.1249 19.7133 34.1249 19.7133 34.1249 19.7133C34.1249 19.7133 34.1249 19.7133 34.1249 19.7133C34.1249 19.7132 34.1249 19.7132 34.125 19.7131C34.125 19.713 34.1251 19.7127 34.1252 19.7125C34.1255 19.7119 34.1258 19.7112 34.1262 19.7101C34.1271 19.7081 34.1284 19.7051 34.1301 19.7012C34.1334 19.6935 34.1383 19.6822 34.1445 19.6678C34.1569 19.6391 34.1744 19.5981 34.1954 19.5487C34.2372 19.4502 34.2928 19.318 34.3473 19.1841C34.4014 19.0512 34.456 18.9127 34.4951 18.803C34.5142 18.7493 34.5321 18.6954 34.5442 18.6498C34.5498 18.6286 34.5573 18.5975 34.5611 18.5642C34.5629 18.5485 34.5655 18.5185 34.5619 18.4825C34.5597 18.4601 34.5495 18.3616 34.4657 18.2776L34.0022 18.7396C33.921 18.6581 33.9123 18.564 33.9107 18.5478C33.9077 18.5181 33.9101 18.4962 33.9108 18.4902C33.9124 18.4765 33.9143 18.4717 33.9114 18.4826C33.9065 18.5012 33.8959 18.5346 33.8785 18.5835C33.8445 18.6791 33.7943 18.8067 33.7411 18.9374C33.6883 19.0671 33.6341 19.1961 33.593 19.2928C33.5725 19.3411 33.5553 19.3813 33.5433 19.4093C33.5372 19.4233 33.5325 19.4342 33.5293 19.4417C33.5277 19.4454 33.5265 19.4482 33.5257 19.4501C33.5253 19.451 33.525 19.4517 33.5248 19.4522C33.5247 19.4524 33.5246 19.4526 33.5245 19.4527C33.5245 19.4527 33.5245 19.4528 33.5245 19.4528C33.5245 19.4528 33.5245 19.4528 33.5245 19.4528C33.5245 19.4528 33.5245 19.4528 33.8247 19.5831ZM32.1443 20.9278C32.1443 21.4222 31.7411 21.8255 31.2461 21.8255V22.48C32.1023 22.48 32.7988 21.7839 32.7988 20.9278H32.1443ZM31.2459 20.0309C31.7417 20.0311 32.1443 20.4338 32.1443 20.9278H32.7988C32.7988 20.0714 32.1023 19.3768 31.2462 19.3764L31.2459 20.0309ZM30.3478 20.9278C30.3478 20.4338 30.7514 20.0309 31.2461 20.0309V19.3764C30.391 19.3764 29.6933 20.0714 29.6933 20.9278H30.3478ZM31.2461 21.8255C30.7517 21.8255 30.3478 21.4221 30.3478 20.9278H29.6933C29.6933 21.784 30.3907 22.48 31.2461 22.48V21.8255Z" fill="white"/>
<defs>
<filter id="filter0_f_1208_2328" x="6.21629" y="14.3874" width="39.4366" height="25.4366" filterUnits="userSpaceOnUse" color-interpolation-filters="sRGB">
<feFlood flood-opacity="0" result="BackgroundImageFix"/>
<feBlend mode="normal" in="SourceGraphic" in2="BackgroundImageFix" result="shape"/>
<feGaussianBlur stdDeviation="1.35914" result="effect1_foregroundBlur_1208_2328"/>
</filter>
<linearGradient id="paint0_linear_1208_2328" x1="59.1982" y1="32.9944" x2="33.1104" y2="-8.0564" gradientUnits="userSpaceOnUse">
<stop stop-color="#85C26A"/>
<stop offset="1" stop-color="#CCF5BA"/>
</linearGradient>
</defs>
</svg>
